<svg width="48" height="48" viewBox="0 0 128 128" fill="none" xmlns="http://www.w3.org/2000/svg">
<path d="M81.6112 2.71914C68.6699 -0.999983 54.8833 -0.526678 42.2275 4.07122C29.5717 8.66912 18.6963 17.1556 11.1601 28.3142C3.62395 39.4729 -0.186184 52.731 0.275816 66.1882C0.737816 79.6454 5.44823 92.611 13.732 103.227C22.0157 113.842 33.4474 121.563 46.3888 125.282C59.3301 129.001 73.1167 128.528 85.7725 123.93C98.4283 119.332 109.304 110.845 116.84 99.6867C124.376 88.528 128.186 75.27 127.724 61.8128L77.706 61.8128C78.0656 72.2859 116.842 68.7903 110.976 77.4746C107.719 87.2637 93.0734 108 80.9446 110.641C71.0951 114.219 60.3656 114.587 50.294 111.693C40.2223 108.799 31.3255 102.79 24.8786 94.5284C18.4318 86.2667 14.7659 76.1762 14.4063 65.7031C14.0468 55.2299 17.012 44.9118 22.8771 36.2275C28.7422 27.5432 37.206 20.9386 47.0554 17.3602C56.9049 13.7819 67.6343 13.4135 77.706 16.308L81.6112 2.71914Z" fill="#22C55E"/>
<path d="M85.1092 44C96.3138 44 105.333 52.9893 105.333 64C105.333 75.0107 96.3138 84 85.1092 84C79.9497 84 74.7178 81.0276 68.8093 75.8612C65.9106 73.3265 63.0099 70.4118 59.998 67.3258C59.5194 66.8354 59.0375 66.3402 58.5526 65.8419C57.1052 64.3545 55.6311 62.8396 54.1376 61.3436C55.8538 60.0273 57.5155 58.7137 59.1229 57.443C59.4336 57.1974 59.7424 56.9534 60.049 56.7112C63.1172 54.2888 65.978 52.0594 68.8079 50.1404C74.4763 46.2964 79.5967 44 85.1092 44Z" stroke="#22C55E" stroke-width="8"/>
</svg>
