<svg width="58" height="56" viewBox="0 0 58 56" fill="none" xmlns="http://www.w3.org/2000/svg">
<rect x="5" width="48" height="48" rx="4" fill="#BFDBFE"/>
<path d="M48.9375 15.5H9.0625C8.10109 15.5 7.17906 15.8161 6.49924 16.3787C5.81942 16.9413 5.4375 17.7044 5.4375 18.5V45.5C5.4375 46.2956 5.81942 47.0587 6.49924 47.6213C7.17906 48.1839 8.10109 48.5 9.0625 48.5H48.9375C49.8989 48.5 50.8209 48.1839 51.5008 47.6213C52.1806 47.0587 52.5625 46.2956 52.5625 45.5V18.5C52.5625 17.7044 52.1806 16.9413 51.5008 16.3787C50.8209 15.8161 49.8989 15.5 48.9375 15.5ZM29 33.5C26.1167 33.4975 23.3523 32.5485 21.3135 30.8612C19.2747 29.1739 18.128 26.8862 18.125 24.5C18.125 24.1022 18.316 23.7206 18.6559 23.4393C18.9958 23.158 19.4568 23 19.9375 23C20.4182 23 20.8792 23.158 21.2191 23.4393C21.559 23.7206 21.75 24.1022 21.75 24.5C21.75 26.0913 22.5138 27.6174 23.8735 28.7426C25.2331 29.8679 27.0772 30.5 29 30.5C30.9228 30.5 32.7669 29.8679 34.1265 28.7426C35.4862 27.6174 36.25 26.0913 36.25 24.5C36.25 24.1022 36.441 23.7206 36.7809 23.4393C37.1208 23.158 37.5818 23 38.0625 23C38.5432 23 39.0042 23.158 39.3441 23.4393C39.684 23.7206 39.875 24.1022 39.875 24.5C39.872 26.8862 38.7253 29.1739 36.6865 30.8612C34.6477 32.5485 31.8833 33.4975 29 33.5Z" fill="#3B82F6"/>
<circle cx="20.5" cy="8.5" r="2.5" fill="#3B82F6"/>
<circle cx="37.5" cy="8.5" r="2.5" fill="#3B82F6"/>
</svg>
